# xmcd
#
# Track frame offsets: 
#        150
#        33785
#        55561
#        70883
#        81490
#        89611
#        95646
#        101245
#        163123
#        174563
#        177328
#        221088
#        222436
#        224383
#        261551
#        287038
#        295791
#        313249
#
# Disc length: 4350 seconds
#
# Revision: 0
# Processed by: cddbd v1.5.2PL0 Copyright (c) Steve Scherf et al.
# Submitted via: ExactAudioCopy v0.95b4
#
DISCID=2210fc12
DTITLE=The Beatles  - AB  Road - Complete Purple Chick Set v1.1 Jan.28
DTITLE=Various Artist - D2  FLAC
DYEAR=1900
DGENRE=
TTITLE0=I've Got A Feeling 28.07
TTITLE1=I've Got A Feeling 28.08
TTITLE2=I've Got A Feeling 28.09
TTITLE3=I've Got A Feeling 28.10
TTITLE4=I've Got A Feeling 28.11
TTITLE5=I've Got A Feeling 28.12
TTITLE6=Rainy Day Women #'s 12 and 35 28.13
TTITLE7=I've Got A Feeling 28.14
TTITLE8=I've Got A Feeling 28.15
TTITLE9=The Inner Light 28.16
TTITLE10=I've Got A Feeling 28.17
TTITLE11=Blue Yodel No. 1 (T for Texas) 28.18
TTITLE12=Tea For Two 28.19
TTITLE13=Dig It 28.20
TTITLE14=I've Got A Feeling 28.21
TTITLE15=I've Got A Feeling 28.22
TTITLE16=On The Road To Marrakesh 28.23
TTITLE17=On The Road To Marrakesh 28.24
EXTD=
EXTT0=
EXTT1=
EXTT2=
EXTT3=
EXTT4=
EXTT5=
EXTT6=
EXTT7=
EXTT8=
EXTT9=
EXTT10=
EXTT11=
EXTT12=
EXTT13=
EXTT14=
EXTT15=
EXTT16=
EXTT17=
PLAYORDER=
